<?xml version="1.0" standalone="no"?>
<!DOCTYPE svg PUBLIC "-//W3C//DTD SVG 20010904//EN"
 "http://www.w3.org/TR/2001/REC-SVG-20010904/DTD/svg10.dtd">
<svg version="1.0" xmlns="http://www.w3.org/2000/svg"
 width="1311.000000pt" height="606.000000pt" viewBox="0 0 1311.000000 606.000000"
 preserveAspectRatio="xMidYMid meet">

<g transform="translate(0.000000,606.000000) scale(0.100000,-0.100000)"
fill="#000000" stroke="none">
<path d="M2268 4541 c-20 -42 -51 -91 -69 -109 -80 -82 -147 -88 -369 -37 -14
4 5 -7 43 -24 209 -94 261 -193 207 -396 -10 -38 -17 -71 -15 -73 1 -1 13 25
26 58 35 89 88 161 136 188 73 40 146 39 323 -4 14 -3 -9 10 -51 29 -198 89
-251 186 -205 382 8 33 14 61 13 61 -1 1 -19 -33 -39 -75z"/>
<path d="M4440 4575 c-174 -39 -328 -160 -414 -325 -53 -101 -70 -170 -70
-290 1 -189 55 -321 184 -450 74 -74 141 -120 349 -243 58 -34 114 -74 124
-89 19 -25 19 -28 3 -52 -9 -14 -23 -26 -31 -26 -21 0 -45 29 -45 56 l0 24
-296 0 -296 0 7 -77 c22 -240 155 -430 369 -528 90 -42 155 -55 264 -55 209 0
395 100 516 277 66 96 97 194 103 318 9 182 -44 334 -159 460 -72 79 -144 131
-314 229 -157 91 -194 119 -194 150 0 56 68 62 84 9 l9 -33 288 0 289 0 0 53
c0 30 -9 88 -20 131 -54 213 -202 371 -417 447 -77 27 -243 34 -333 14z"/>
<path d="M6261 4473 c-11 -38 -137 -473 -281 -968 -143 -495 -263 -908 -266
-918 -5 -16 13 -17 312 -15 l317 3 90 312 c50 172 94 309 97 305 4 -4 46 -145
95 -314 l89 -308 317 0 317 0 -82 283 c-46 155 -174 598 -286 985 l-204 702
-248 0 -247 0 -20 -67z"/>
<path d="M7620 4220 l0 -320 163 -2 162 -3 3 -662 2 -663 325 0 325 0 0 665 0
665 165 0 165 0 0 320 0 320 -655 0 -655 0 0 -320z"/>
<path d="M9550 4220 l0 -320 230 0 c127 0 230 -4 230 -8 0 -8 -545 -1296 -556
-1314 -3 -4 312 -8 700 -8 l706 0 0 320 0 320 -239 2 -240 3 275 645 c151 355
277 653 280 663 5 16 -32 17 -690 17 l-696 0 0 -320z"/>
<path d="M2330 4028 c3 -3 50 -39 105 -81 187 -140 364 -318 461 -462 341
-513 104 -910 -610 -1021 -150 -24 -527 -24 -711 -1 -277 35 -571 100 -843
188 -153 49 -431 158 -524 205 -38 19 -68 32 -68 30 0 -9 169 -101 324 -177
582 -286 1236 -449 1804 -449 213 0 333 11 492 47 453 100 674 362 595 703
-69 293 -420 665 -895 945 -108 64 -135 79 -130 73z"/>
<path d="M764 1678 c17 -108 101 -222 200 -272 156 -79 335 -49 452 76 50 54
90 131 100 196 l7 42 -383 0 -383 0 7 -42z"/>
<path d="M2160 1709 c-144 -28 -273 -162 -296 -307 l-7 -42 4764 2 4764 3 57
28 c110 54 183 153 195 267 l6 60 -4719 -1 c-2640 -1 -4739 -5 -4764 -10z"/>
<path d="M2611 977 c-25 -31 20 -71 48 -42 12 12 13 19 5 33 -15 22 -38 26
-53 9z"/>
<path d="M5211 977 c-25 -31 20 -71 48 -42 12 12 13 19 5 33 -15 22 -38 26
-53 9z"/>
<path d="M9793 983 c-18 -7 -16 -50 2 -57 27 -10 46 5 43 33 -3 25 -20 35 -45
24z"/>
<path d="M840 760 l0 -220 140 0 c118 0 140 2 140 15 0 12 -19 15 -115 15
l-115 0 0 95 0 95 100 0 c82 0 100 3 100 15 0 12 -18 15 -100 15 l-100 0 0 80
0 80 115 0 c96 0 115 3 115 15 0 13 -22 15 -140 15 l-140 0 0 -220z"/>
<path d="M8350 760 l0 -220 25 0 25 0 0 220 0 220 -25 0 -25 0 0 -220z"/>
<path d="M9340 905 c0 -41 -2 -45 -25 -45 -16 0 -25 -6 -25 -15 0 -9 9 -15 25
-15 l25 0 0 -110 c0 -122 9 -153 51 -170 44 -19 117 6 92 31 -10 10 -16 9 -31
-4 -23 -21 -27 -21 -46 -1 -13 12 -16 40 -16 135 l0 119 40 0 c29 0 40 4 40
15 0 11 -11 15 -40 15 l-40 0 0 45 c0 41 -2 45 -25 45 -23 0 -25 -4 -25 -45z"/>
<path d="M1410 700 l0 -160 24 0 c24 0 24 1 28 121 3 118 4 121 31 145 34 29
80 31 107 4 18 -18 20 -33 20 -145 l0 -125 26 0 26 0 -4 135 c-3 121 -5 137
-24 156 -32 31 -95 36 -139 10 -44 -26 -45 -26 -45 -1 0 15 -7 20 -25 20 l-25
0 0 -160z"/>
<path d="M2051 842 c-48 -24 -70 -59 -78 -120 -7 -63 16 -132 54 -162 49 -38
125 -38 163 0 20 20 20 20 20 -39 0 -43 -5 -65 -20 -84 -37 -47 -101 -44 -142
7 -16 19 -18 20 -33 5 -15 -15 -15 -18 10 -37 56 -44 144 -40 198 8 l32 28 3
206 3 206 -25 0 c-21 0 -26 -5 -27 -27 0 -16 -3 -22 -6 -15 -7 18 -58 42 -90
42 -15 0 -43 -8 -62 -18z m133 -43 c23 -27 26 -39 26 -106 0 -69 -2 -77 -29
-104 -16 -16 -39 -29 -51 -29 -33 0 -75 26 -88 55 -18 38 -15 132 5 165 33 57
98 66 137 19z"/>
<path d="M2610 700 l0 -160 25 0 25 0 0 160 0 160 -25 0 -25 0 0 -160z"/>
<path d="M3000 700 l0 -160 24 0 c24 0 24 1 28 121 3 118 4 121 31 145 34 29
80 31 107 4 18 -18 20 -33 20 -145 l0 -125 26 0 26 0 -4 135 c-3 121 -5 137
-24 156 -32 31 -95 36 -139 10 -44 -26 -45 -26 -45 -1 0 15 -7 20 -25 20 l-25
0 0 -160z"/>
<path d="M3643 845 c-62 -27 -95 -115 -74 -195 23 -84 95 -129 187 -115 50 7
101 42 85 58 -7 7 -16 5 -29 -6 -10 -9 -32 -22 -50 -28 -63 -22 -142 31 -142
95 l0 26 121 0 121 0 -7 38 c-12 67 -36 103 -79 123 -49 22 -89 23 -133 4z
m131 -36 c17 -20 26 -43 26 -65 l0 -34 -90 0 c-90 0 -90 0 -90 25 0 32 24 81
47 94 36 21 80 13 107 -20z"/>
<path d="M4220 842 c-73 -36 -103 -139 -66 -226 35 -83 155 -110 246 -55 23
14 30 23 22 31 -7 7 -19 4 -39 -10 -43 -30 -75 -35 -116 -19 -38 16 -62 45
-72 90 l-7 27 122 0 123 0 -6 46 c-2 26 -13 58 -24 73 -24 33 -79 61 -118 61
-16 0 -46 -8 -65 -18z m124 -28 c14 -15 26 -30 26 -34 0 -4 3 -22 6 -39 l7
-31 -97 0 c-104 0 -106 1 -85 57 28 74 93 96 143 47z"/>
<path d="M4740 700 l0 -160 25 0 25 0 0 118 c0 90 4 123 16 140 16 24 62 30
81 11 8 -8 14 -6 22 10 25 45 -66 53 -101 8 l-18 -22 0 28 c0 22 -4 27 -25 27
l-25 0 0 -160z"/>
<path d="M5210 700 l0 -160 25 0 25 0 0 160 0 160 -25 0 -25 0 0 -160z"/>
<path d="M5600 700 l0 -160 24 0 c24 0 24 1 28 121 3 118 4 121 31 145 34 29
80 31 107 4 18 -18 20 -33 20 -145 l0 -125 26 0 26 0 -4 135 c-3 121 -5 137
-24 156 -32 31 -95 36 -139 10 -44 -26 -45 -26 -45 -1 0 15 -7 20 -25 20 l-25
0 0 -160z"/>
<path d="M6241 842 c-48 -24 -70 -59 -78 -120 -7 -63 16 -132 54 -162 49 -38
125 -38 163 0 20 20 20 20 20 -39 0 -43 -5 -65 -20 -84 -37 -47 -101 -44 -142
7 -16 19 -18 20 -33 5 -15 -15 -15 -18 10 -37 56 -44 144 -40 198 8 l32 28 3
206 3 206 -25 0 c-21 0 -26 -5 -27 -27 0 -16 -3 -22 -6 -15 -7 18 -58 42 -90
42 -15 0 -43 -8 -62 -18z m133 -43 c23 -27 26 -39 26 -106 0 -69 -2 -77 -29
-104 -16 -16 -39 -29 -51 -29 -33 0 -75 26 -88 55 -18 38 -15 132 5 165 33 57
98 66 137 19z"/>
<path d="M7254 850 c-29 -12 -54 -49 -54 -81 0 -41 35 -76 96 -95 89 -29 114
-64 73 -105 -17 -17 -29 -20 -61 -16 -41 6 -78 31 -78 54 0 7 -9 13 -20 13
-52 0 4 -74 64 -85 105 -20 182 47 150 130 -8 19 -50 42 -114 61 -57 17 -74
35 -66 69 13 50 89 55 125 9 25 -32 53 -33 42 -1 -15 43 -102 69 -157 47z"/>
<path d="M7802 839 c-53 -27 -82 -79 -82 -146 0 -65 27 -112 80 -140 54 -29
94 -29 150 0 50 25 90 88 90 142 0 40 -38 114 -72 138 -41 30 -114 33 -166 6z
m137 -23 c24 -19 41 -73 41 -129 0 -129 -113 -180 -184 -84 -16 22 -21 43 -21
92 0 69 20 108 66 132 26 14 75 8 98 -11z"/>
<path d="M8732 725 c3 -132 4 -135 31 -162 38 -38 113 -40 151 -4 26 24 26 24
26 3 0 -17 6 -22 25 -22 l25 0 0 160 0 160 -25 0 -25 0 0 -110 c0 -148 -16
-180 -90 -180 -19 0 -36 9 -49 26 -19 24 -21 40 -21 145 l0 119 -26 0 -26 0 4
-135z"/>
<path d="M9780 700 l0 -160 30 0 30 0 0 160 0 160 -30 0 -30 0 0 -160z"/>
<path d="M10242 839 c-53 -27 -82 -79 -82 -146 0 -65 27 -112 80 -140 54 -29
94 -29 150 0 50 25 90 88 90 142 0 40 -38 114 -72 138 -41 30 -114 33 -166 6z
m137 -23 c24 -19 41 -73 41 -129 0 -129 -113 -180 -184 -84 -16 22 -21 43 -21
92 0 69 20 108 66 132 26 14 75 8 98 -11z"/>
<path d="M10780 700 l0 -160 24 0 c24 0 24 1 28 121 3 118 4 121 31 145 34 29
80 31 107 4 18 -18 20 -33 20 -145 l0 -125 26 0 26 0 -4 135 c-3 121 -5 137
-24 156 -32 31 -95 36 -139 10 -44 -26 -45 -26 -45 -1 0 15 -7 20 -25 20 l-25
0 0 -160z"/>
<path d="M11395 848 c-33 -17 -45 -40 -45 -80 0 -48 22 -70 91 -93 30 -10 62
-24 72 -33 40 -35 5 -92 -56 -92 -20 0 -40 11 -64 35 -32 32 -63 46 -63 27 0
-19 35 -55 66 -68 95 -40 197 14 179 96 -8 37 -29 54 -90 75 -70 23 -95 41
-95 69 0 55 85 70 126 23 21 -24 44 -36 44 -21 0 51 -110 93 -165 62z"/>
</g>
</svg>
