<svg xmlns="http://www.w3.org/2000/svg" viewBox="0 0 128 128" id="linkedin">
  <rect width="105" height="105" x="12" y="12" fill="#0077b0" rx="4"></rect>
  <path fill="#0077b0" d="M101.5 124h-75A22.52 22.52 0 0 1 4 101.5v-75A22.52 22.52 0 0 1 26.5 4h75A22.52 22.52 0 0 1 124 26.5v75a22.52 22.52 0 0 1-22.5 22.5Zm-75-105a7.5 7.5 0 0 0-7.5 7.5v75a7.5 7.5 0 0 0 7.5 7.5h75a7.5 7.5 0 0 0 7.5-7.5v-75a7.5 7.5 0 0 0-7.5-7.5Z"></path>
  <path fill="#fff" d="M45.91 43c0 4.35-3.7 7.62-8.49 7.62S28.85 47.3 28.85 43s3.7-7.77 8.57-7.77 8.49 3.29 8.49 7.77zM30 84.74V60.63a7.5 7.5 0 1 1 15 0v24.11a7.5 7.5 0 0 1-15 0zM99 68v16.76a7.43 7.43 0 0 1-8.16 7.41 7.53 7.53 0 0 1-6.84-7.6V68.76c0-3.68-1.69-5.07-6-5.07a15.34 15.34 0 0 0-7 1.39v19.43a7.59 7.59 0 0 1-6.75 7.65 7.38 7.38 0 0 1-8.25-7.4V60.3a7.15 7.15 0 0 1 14-2 22.24 22.24 0 0 1 15-5.4c9.25.03 14 5.1 14 15.1z"></path>
</svg>
